SplineFontDB: 3.0
FontName: testfont1
FullName: testfont1
FamilyName: testfont1
Weight: Regular
ItalicAngle: 0
UnderlinePosition: 0
UnderlineWidth: 0
Ascent: 960
Descent: 240
LayerCount: 2
Layer: 0 0 "Back"  1
Layer: 1 0 "Fore"  0
XUID: [1021 5 -1396130483 617003]
OS2Version: 0
OS2_WeightWidthSlopeOnly: 0
OS2_UseTypoMetrics: 0
CreationTime: 1405113749
ModificationTime: 1405447210
PfmFamily: 17
TTFWeight: 400
TTFWidth: 5
LineGap: 108
VLineGap: 108
Panose: 2 0 5 3 0 0 0 0 0 0
OS2TypoAscent: 0
OS2TypoAOffset: 1
OS2TypoDescent: 0
OS2TypoDOffset: 1
OS2TypoLinegap: 108
OS2WinAscent: 0
OS2WinAOffset: 1
OS2WinDescent: 0
OS2WinDOffset: 1
HheadAscent: 0
HheadAOffset: 1
HheadDescent: 0
HheadDOffset: 1
OS2Vendor: 'PfEd'
DEI: 91125
Encoding: Original
UnicodeInterp: none
NameList: AGL For New Fonts
DisplaySize: -128
AntiAlias: 1
FitToEm: 1
WinInfo: 0 8 3
BeginChars: 20 20

StartChar: .notdef
Encoding: 0 0 0
Width: 381
Flags: HW
LayerCount: 2
Fore
SplineSet
100 1112.5 m 2
 94.634765625 1112.5 87.5 1107.56640625 87.5 1100 c 0
 87.5 500 l 0
 87.5 494.634765625 92.43359375 487.5 100 487.5 c 0
 300 487.5 l 0
 305.365234375 487.5 312.5 492.43359375 312.5 500 c 0
 312.5 1100 l 0
 312.5 1105.36523438 307.56640625 1112.5 300 1112.5 c 0
 100 1112.5 l 2
112.5 1087.5 m 1
 287.5 1087.5 l 1
 287.5 512.5 l 1
 112.5 512.5 l 1
 112.5 1087.5 l 1
EndSplineSet
EndChar

StartChar: C12341
Encoding: 1 20231 1
Width: 225
Flags: HW
LayerCount: 2
Fore
SplineSet
100 612.5 m 0
 93.19140625 612.5 87.5 606.80859375 87.5 600 c 0
 87.5 400 l 0
 87.5 393.19140625 93.19140625 387.5 100 387.5 c 0
 106.80859375 387.5 112.5 393.19140625 112.5 400 c 0
 112.5 600 l 0
 112.5 606.80859375 106.80859375 612.5 100 612.5 c 0
-12.5 800 m 0
 -12.5 793.19140625 -6.80859375 787.5 0 787.5 c 0
 200 787.5 l 0
 206.80859375 787.5 212.5 793.19140625 212.5 800 c 0
 212.5 806.80859375 206.80859375 812.5 200 812.5 c 0
 0 812.5 l 0
 -6.80859375 812.5 -12.5 806.80859375 -12.5 800 c 0
-12.5 400 m 0
 -12.5 393.19140625 -6.80859375 387.5 0 387.5 c 0
 200 387.5 l 0
 206.80859375 387.5 212.5 393.19140625 212.5 400 c 0
 212.5 406.80859375 206.80859375 412.5 200 412.5 c 0
 0 412.5 l 0
 -6.80859375 412.5 -12.5 406.80859375 -12.5 400 c 0
-12.5 700 m 0
 -12.5 637.895507812 37.8955078125 587.5 100 587.5 c 0
 162.104492188 587.5 212.5 637.895507812 212.5 700 c 0
 212.5 762.104492188 162.104492188 812.5 100 812.5 c 0
 37.8955078125 812.5 -12.5 762.104492188 -12.5 700 c 0
12.5 700 m 0
 12.5 748.295898438 51.705078125 787.5 100 787.5 c 0
 148.295898438 787.5 187.5 748.294921875 187.5 700 c 0
 187.5 651.704101562 148.294921875 612.5 100 612.5 c 0
 51.7041015625 612.5 12.5 651.705078125 12.5 700 c 0
EndSplineSet
EndChar

StartChar: C12357
Encoding: 2 20238 2
Width: 425
Flags: HW
LayerCount: 2
Fore
SplineSet
-12.5 800 m 0
 -12.5 793.19140625 -6.80859375 787.5 0 787.5 c 0
 103.49609375 787.5 187.5 703.49609375 187.5 600 c 0
 187.5 593.19140625 193.19140625 587.5 200 587.5 c 0
 206.80859375 587.5 212.5 593.19140625 212.5 600 c 0
 212.5 717.3046875 117.3046875 812.5 0 812.5 c 0
 -6.80859375 812.5 -12.5 806.80859375 -12.5 800 c 0
200 587.5 m 0
 206.80859375 587.5 212.5 593.19140625 212.5 600 c 0
 212.5 703.49609375 296.50390625 787.5 400 787.5 c 0
 406.80859375 787.5 412.5 793.19140625 412.5 800 c 0
 412.5 806.80859375 406.80859375 812.5 400 812.5 c 0
 282.6953125 812.5 187.5 717.3046875 187.5 600 c 0
 187.5 593.19140625 193.19140625 587.5 200 587.5 c 0
87.5 500 m 0
 87.5 437.895507812 137.895507812 387.5 200 387.5 c 0
 262.104492188 387.5 312.5 437.895507812 312.5 500 c 0
 312.5 562.104492188 262.104492188 612.5 200 612.5 c 0
 137.895507812 612.5 87.5 562.104492188 87.5 500 c 0
112.5 500 m 0
 112.5 548.295898438 151.705078125 587.5 200 587.5 c 0
 248.295898438 587.5 287.5 548.294921875 287.5 500 c 0
 287.5 451.704101562 248.294921875 412.5 200 412.5 c 0
 151.704101562 412.5 112.5 451.705078125 112.5 500 c 0
128.661132812 428.661132812 m 0
 133.475585938 423.846679688 141.524414062 423.846679688 146.338867188 428.661132812 c 0
 271.338867188 553.661132812 l 0
 276.153320312 558.475585938 276.153320312 566.524414062 271.338867188 571.338867188 c 0
 266.524414062 576.153320312 258.475585938 576.153320312 253.661132812 571.338867188 c 0
 128.661132812 446.338867188 l 0
 123.846679688 441.524414062 123.846679688 433.475585938 128.661132812 428.661132812 c 0
128.661132812 571.338867188 m 0
 123.846679688 566.524414062 123.846679688 558.475585938 128.661132812 553.661132812 c 0
 253.661132812 428.661132812 l 0
 258.475585938 423.846679688 266.524414062 423.846679688 271.338867188 428.661132812 c 0
 276.153320312 433.475585938 276.153320312 441.524414062 271.338867188 446.338867188 c 0
 146.338867188 571.338867188 l 0
 141.524414062 576.153320312 133.475585938 576.153320312 128.661132812 571.338867188 c 0
EndSplineSet
EndChar

StartChar: C12360
Encoding: 3 20240 3
Width: 425
Flags: HW
LayerCount: 2
Fore
SplineSet
-8.8388671875 391.161132812 m 0
 -4.0244140625 386.346679688 4.0244140625 386.346679688 8.8388671875 391.161132812 c 0
 408.838867188 791.161132812 l 0
 413.653320312 795.975585938 413.653320312 804.024414062 408.838867188 808.838867188 c 0
 404.024414062 813.653320312 395.975585938 813.653320312 391.161132812 808.838867188 c 0
 -8.8388671875 408.838867188 l 0
 -13.6533203125 404.024414062 -13.6533203125 395.975585938 -8.8388671875 391.161132812 c 0
-8.8388671875 808.838867188 m 0
 -13.6533203125 804.024414062 -13.6533203125 795.975585938 -8.8388671875 791.161132812 c 0
 391.161132812 391.161132812 l 0
 395.975585938 386.346679688 404.024414062 386.346679688 408.838867188 391.161132812 c 0
 413.653320312 395.975585938 413.653320312 404.024414062 408.838867188 408.838867188 c 0
 8.8388671875 808.838867188 l 0
 4.0244140625 813.653320312 -4.0244140625 813.653320312 -8.8388671875 808.838867188 c 0
-12.5 800 m 0
 -12.5 793.19140625 -6.80859375 787.5 0 787.5 c 0
 387.5 787.5 l 1
 387.5 400 l 0
 387.5 393.19140625 393.19140625 387.5 400 387.5 c 0
 406.80859375 387.5 412.5 393.19140625 412.5 400 c 0
 412.5 800 l 0
 412.5 805.365234375 407.56640625 812.5 400 812.5 c 0
 0 812.5 l 0
 -6.80859375 812.5 -12.5 806.80859375 -12.5 800 c 0
412.5 400 m 0
 412.5 406.80859375 406.80859375 412.5 400 412.5 c 0
 12.5 412.5 l 1
 12.5 800 l 0
 12.5 806.80859375 6.80859375 812.5 0 812.5 c 0
 -6.80859375 812.5 -12.5 806.80859375 -12.5 800 c 0
 -12.5 400 l 0
 -12.5 394.634765625 -7.56640625 387.5 0 387.5 c 0
 400 387.5 l 0
 406.80859375 387.5 412.5 393.19140625 412.5 400 c 0
EndSplineSet
EndChar

StartChar: C12592
Encoding: 4 20259 4
Width: 425
Flags: HW
LayerCount: 2
Fore
SplineSet
137.5 600 m 0
 137.5 565.49609375 165.49609375 537.5 200 537.5 c 0
 234.50390625 537.5 262.5 565.49609375 262.5 600 c 0
 262.5 634.50390625 234.50390625 662.5 200 662.5 c 0
 165.49609375 662.5 137.5 634.50390625 137.5 600 c 0
162.5 600 m 0
 162.5 620.6953125 179.3046875 637.5 200 637.5 c 0
 220.6953125 637.5 237.5 620.6953125 237.5 600 c 0
 237.5 579.3046875 220.6953125 562.5 200 562.5 c 0
 179.3046875 562.5 162.5 579.3046875 162.5 600 c 0
-12.5 600 m 0
 -12.5 482.6953125 82.6953125 387.5 200 387.5 c 0
 317.3046875 387.5 412.5 482.6953125 412.5 600 c 0
 412.5 717.3046875 317.3046875 812.5 200 812.5 c 0
 82.6953125 812.5 -12.5 717.3046875 -12.5 600 c 0
12.5 600 m 0
 12.5 703.49609375 96.50390625 787.5 200 787.5 c 0
 303.49609375 787.5 387.5 703.49609375 387.5 600 c 0
 387.5 496.50390625 303.49609375 412.5 200 412.5 c 0
 96.50390625 412.5 12.5 496.50390625 12.5 600 c 0
308.838867188 291.161132812 m 0
 313.653320312 295.975585938 313.653320312 304.024414062 308.838867188 308.838867188 c 0
 217.677734375 400 l 1
 308.838867188 491.161132812 l 0
 313.653320312 495.975585938 313.653320312 504.024414062 308.838867188 508.838867188 c 0
 304.024414062 513.653320312 295.975585938 513.653320312 291.161132812 508.838867188 c 0
 191.161132812 408.838867188 l 0
 187.3671875 405.044921875 185.810546875 396.51171875 191.161132812 391.161132812 c 0
 291.161132812 291.161132812 l 0
 295.975585938 286.346679688 304.024414062 286.346679688 308.838867188 291.161132812 c 0
EndSplineSet
EndChar

StartChar: C12860
Encoding: 5 20290 5
Width: 325
Flags: HW
LayerCount: 2
Fore
SplineSet
-8.8388671875 691.161132812 m 0
 -4.0244140625 686.346679688 4.0244140625 686.346679688 8.8388671875 691.161132812 c 0
 108.838867188 791.161132812 l 0
 113.653320312 795.975585938 113.653320312 804.024414062 108.838867188 808.838867188 c 0
 104.024414062 813.653320312 95.9755859375 813.653320312 91.1611328125 808.838867188 c 0
 -8.8388671875 708.838867188 l 0
 -13.6533203125 704.024414062 -13.6533203125 695.975585938 -8.8388671875 691.161132812 c 0
191.161132812 691.161132812 m 0
 195.975585938 686.346679688 204.024414062 686.346679688 208.838867188 691.161132812 c 0
 308.838867188 791.161132812 l 0
 313.653320312 795.975585938 313.653320312 804.024414062 308.838867188 808.838867188 c 0
 304.024414062 813.653320312 295.975585938 813.653320312 291.161132812 808.838867188 c 0
 191.161132812 708.838867188 l 0
 186.346679688 704.024414062 186.346679688 695.975585938 191.161132812 691.161132812 c 0
191.161132812 491.161132812 m 0
 195.975585938 486.346679688 204.024414062 486.346679688 208.838867188 491.161132812 c 0
 308.838867188 591.161132812 l 0
 313.653320312 595.975585938 313.653320312 604.024414062 308.838867188 608.838867188 c 0
 304.024414062 613.653320312 295.975585938 613.653320312 291.161132812 608.838867188 c 0
 191.161132812 508.838867188 l 0
 186.346679688 504.024414062 186.346679688 495.975585938 191.161132812 491.161132812 c 0
-12.5 700 m 0
 -12.5 693.19140625 -6.80859375 687.5 0 687.5 c 0
 187.5 687.5 l 1
 187.5 500 l 0
 187.5 493.19140625 193.19140625 487.5 200 487.5 c 0
 206.80859375 487.5 212.5 493.19140625 212.5 500 c 0
 212.5 700 l 0
 212.5 705.365234375 207.56640625 712.5 200 712.5 c 0
 0 712.5 l 0
 -6.80859375 712.5 -12.5 706.80859375 -12.5 700 c 0
87.5 800 m 0
 87.5 793.19140625 93.19140625 787.5 100 787.5 c 0
 287.5 787.5 l 1
 287.5 600 l 0
 287.5 593.19140625 293.19140625 587.5 300 587.5 c 0
 306.80859375 587.5 312.5 593.19140625 312.5 600 c 0
 312.5 800 l 0
 312.5 805.365234375 307.56640625 812.5 300 812.5 c 0
 100 812.5 l 0
 93.19140625 812.5 87.5 806.80859375 87.5 800 c 0
212.5 500 m 0
 212.5 506.80859375 206.80859375 512.5 200 512.5 c 0
 12.5 512.5 l 1
 12.5 700 l 0
 12.5 706.80859375 6.80859375 712.5 0 712.5 c 0
 -6.80859375 712.5 -12.5 706.80859375 -12.5 700 c 0
 -12.5 500 l 0
 -12.5 494.634765625 -7.56640625 487.5 0 487.5 c 0
 200 487.5 l 0
 206.80859375 487.5 212.5 493.19140625 212.5 500 c 0
EndSplineSet
EndChar

StartChar: C12886
Encoding: 6 20299 6
Width: 625
Flags: HW
LayerCount: 2
Fore
SplineSet
-8.8388671875 791.161132812 m 0
 -4.0244140625 786.346679688 4.0244140625 786.346679688 8.8388671875 791.161132812 c 0
 208.838867188 991.161132812 l 0
 213.653320312 995.975585938 213.653320312 1004.02441406 208.838867188 1008.83886719 c 0
 204.024414062 1013.65332031 195.975585938 1013.65332031 191.161132812 1008.83886719 c 0
 -8.8388671875 808.838867188 l 0
 -13.6533203125 804.024414062 -13.6533203125 795.975585938 -8.8388671875 791.161132812 c 0
391.161132812 791.161132812 m 0
 395.975585938 786.346679688 404.024414062 786.346679688 408.838867188 791.161132812 c 0
 608.838867188 991.161132812 l 0
 613.653320312 995.975585938 613.653320312 1004.02441406 608.838867188 1008.83886719 c 0
 604.024414062 1013.65332031 595.975585938 1013.65332031 591.161132812 1008.83886719 c 0
 391.161132812 808.838867188 l 0
 386.346679688 804.024414062 386.346679688 795.975585938 391.161132812 791.161132812 c 0
391.161132812 391.161132812 m 0
 395.975585938 386.346679688 404.024414062 386.346679688 408.838867188 391.161132812 c 0
 608.838867188 591.161132812 l 0
 613.653320312 595.975585938 613.653320312 604.024414062 608.838867188 608.838867188 c 0
 604.024414062 613.653320312 595.975585938 613.653320312 591.161132812 608.838867188 c 0
 391.161132812 408.838867188 l 0
 386.346679688 404.024414062 386.346679688 395.975585938 391.161132812 391.161132812 c 0
-12.5 800 m 0
 -12.5 793.19140625 -6.80859375 787.5 0 787.5 c 0
 387.5 787.5 l 1
 387.5 400 l 0
 387.5 393.19140625 393.19140625 387.5 400 387.5 c 0
 406.80859375 387.5 412.5 393.19140625 412.5 400 c 0
 412.5 800 l 0
 412.5 805.365234375 407.56640625 812.5 400 812.5 c 0
 0 812.5 l 0
 -6.80859375 812.5 -12.5 806.80859375 -12.5 800 c 0
187.5 1000 m 0
 187.5 993.19140625 193.19140625 987.5 200 987.5 c 0
 587.5 987.5 l 1
 587.5 600 l 0
 587.5 593.19140625 593.19140625 587.5 600 587.5 c 0
 606.80859375 587.5 612.5 593.19140625 612.5 600 c 0
 612.5 1000 l 0
 612.5 1005.36523438 607.56640625 1012.5 600 1012.5 c 0
 200 1012.5 l 0
 193.19140625 1012.5 187.5 1006.80859375 187.5 1000 c 0
412.5 400 m 0
 412.5 406.80859375 406.80859375 412.5 400 412.5 c 0
 12.5 412.5 l 1
 12.5 800 l 0
 12.5 806.80859375 6.80859375 812.5 0 812.5 c 0
 -6.80859375 812.5 -12.5 806.80859375 -12.5 800 c 0
 -12.5 400 l 0
 -12.5 394.634765625 -7.56640625 387.5 0 387.5 c 0
 400 387.5 l 0
 406.80859375 387.5 412.5 393.19140625 412.5 400 c 0
EndSplineSet
EndChar

StartChar: C13128
Encoding: 7 20327 7
Width: 725
Flags: HW
LayerCount: 2
Fore
SplineSet
387.5 700 m 0
 387.5 693.19140625 393.19140625 687.5 400 687.5 c 0
 500 687.5 l 0
 506.80859375 687.5 512.5 693.19140625 512.5 700 c 0
 512.5 706.80859375 506.80859375 712.5 500 712.5 c 0
 400 712.5 l 0
 393.19140625 712.5 387.5 706.80859375 387.5 700 c 0
187.5 700 m 0
 187.5 693.19140625 193.19140625 687.5 200 687.5 c 0
 400 687.5 l 0
 406.80859375 687.5 412.5 693.19140625 412.5 700 c 0
 412.5 706.80859375 406.80859375 712.5 400 712.5 c 0
 200 712.5 l 0
 193.19140625 712.5 187.5 706.80859375 187.5 700 c 0
-12.5 800 m 0
 -12.5 793.19140625 -6.80859375 787.5 0 787.5 c 0
 400 787.5 l 0
 406.80859375 787.5 412.5 793.19140625 412.5 800 c 0
 412.5 806.80859375 406.80859375 812.5 400 812.5 c 0
 0 812.5 l 0
 -6.80859375 812.5 -12.5 806.80859375 -12.5 800 c 0
287.5 400 m 0
 287.5 393.19140625 293.19140625 387.5 300 387.5 c 0
 700 387.5 l 0
 706.80859375 387.5 712.5 393.19140625 712.5 400 c 0
 712.5 406.80859375 706.80859375 412.5 700 412.5 c 0
 300 412.5 l 0
 293.19140625 412.5 287.5 406.80859375 287.5 400 c 0
87.5 600 m 0
 87.5 537.895507812 137.895507812 487.5 200 487.5 c 0
 262.104492188 487.5 312.5 537.895507812 312.5 600 c 0
 312.5 662.104492188 262.104492188 712.5 200 712.5 c 0
 137.895507812 712.5 87.5 662.104492188 87.5 600 c 0
112.5 600 m 0
 112.5 648.295898438 151.705078125 687.5 200 687.5 c 0
 248.295898438 687.5 287.5 648.294921875 287.5 600 c 0
 287.5 551.704101562 248.294921875 512.5 200 512.5 c 0
 151.704101562 512.5 112.5 551.705078125 112.5 600 c 0
387.5 600 m 0
 387.5 537.895507812 437.895507812 487.5 500 487.5 c 0
 562.104492188 487.5 612.5 537.895507812 612.5 600 c 0
 612.5 662.104492188 562.104492188 712.5 500 712.5 c 0
 437.895507812 712.5 387.5 662.104492188 387.5 600 c 0
412.5 600 m 0
 412.5 648.295898438 451.705078125 687.5 500 687.5 c 0
 548.295898438 687.5 587.5 648.294921875 587.5 600 c 0
 587.5 551.704101562 548.294921875 512.5 500 512.5 c 0
 451.704101562 512.5 412.5 551.705078125 412.5 600 c 0
287.5 800 m 0
 287.5 793.19140625 293.19140625 787.5 300 787.5 c 0
 687.5 787.5 l 1
 687.5 400 l 0
 687.5 393.19140625 693.19140625 387.5 700 387.5 c 0
 706.80859375 387.5 712.5 393.19140625 712.5 400 c 0
 712.5 800 l 0
 712.5 805.365234375 707.56640625 812.5 700 812.5 c 0
 300 812.5 l 0
 293.19140625 812.5 287.5 806.80859375 287.5 800 c 0
412.5 400 m 0
 412.5 406.80859375 406.80859375 412.5 400 412.5 c 0
 12.5 412.5 l 1
 12.5 800 l 0
 12.5 806.80859375 6.80859375 812.5 0 812.5 c 0
 -6.80859375 812.5 -12.5 806.80859375 -12.5 800 c 0
 -12.5 400 l 0
 -12.5 394.634765625 -7.56640625 387.5 0 387.5 c 0
 400 387.5 l 0
 406.80859375 387.5 412.5 393.19140625 412.5 400 c 0
EndSplineSet
EndChar

StartChar: C14659
Encoding: 8 20492 8
Width: 425
Flags: HW
LayerCount: 2
Fore
SplineSet
200 812.5 m 0
 193.19140625 812.5 187.5 806.80859375 187.5 800 c 0
 187.5 400 l 0
 187.5 393.19140625 193.19140625 387.5 200 387.5 c 0
 206.80859375 387.5 212.5 393.19140625 212.5 400 c 0
 212.5 800 l 0
 212.5 806.80859375 206.80859375 812.5 200 812.5 c 0
87.5 700 m 0
 87.5 693.19140625 93.19140625 687.5 100 687.5 c 0
 287.5 687.5 l 1
 287.5 500 l 0
 287.5 493.19140625 293.19140625 487.5 300 487.5 c 0
 306.80859375 487.5 312.5 493.19140625 312.5 500 c 0
 312.5 700 l 0
 312.5 705.365234375 307.56640625 712.5 300 712.5 c 0
 100 712.5 l 0
 93.19140625 712.5 87.5 706.80859375 87.5 700 c 0
312.5 500 m 0
 312.5 506.80859375 306.80859375 512.5 300 512.5 c 0
 112.5 512.5 l 1
 112.5 700 l 0
 112.5 706.80859375 106.80859375 712.5 100 712.5 c 0
 93.19140625 712.5 87.5 706.80859375 87.5 700 c 0
 87.5 500 l 0
 87.5 494.634765625 92.43359375 487.5 100 487.5 c 0
 300 487.5 l 0
 306.80859375 487.5 312.5 493.19140625 312.5 500 c 0
308.838867188 508.838867188 m 0
 304.024414062 513.653320312 295.975585938 513.653320312 291.161132812 508.838867188 c 0
 200 417.677734375 l 1
 108.838867188 508.838867188 l 0
 104.024414062 513.653320312 95.9755859375 513.653320312 91.1611328125 508.838867188 c 0
 86.3466796875 504.024414062 86.3466796875 495.975585938 91.1611328125 491.161132812 c 0
 191.161132812 391.161132812 l 0
 194.955078125 387.3671875 203.48828125 385.810546875 208.838867188 391.161132812 c 0
 308.838867188 491.161132812 l 0
 313.653320312 495.975585938 313.653320312 504.024414062 308.838867188 508.838867188 c 0
-7.5 596.25 m 0
 -2.052734375 592.165039062 5.9150390625 593.302734375 10 598.75 c 0
 27.962890625 622.700195312 70.0087890625 643.75 100 643.75 c 0
 129.938476562 643.75 172.004882812 622.743164062 190 598.75 c 0
 190.477539062 598.11328125 191.206054688 597.344726562 191.666992188 596.932617188 c 0
 218.078125 573.309570312 264.576171875 555.553710938 300 555.553710938 c 0
 335.435546875 555.553710938 381.9296875 573.31640625 408.333007812 596.932617188 c 0
 413.408203125 601.471679688 413.856445312 609.508789062 409.317382812 614.583007812 c 0
 404.778320312 619.658203125 396.741210938 620.106445312 391.666992188 615.567382812 c 0
 370.923828125 597.013671875 327.818359375 580.553710938 300 580.553710938 c 0
 272.607421875 580.553710938 230.841796875 596.17578125 209.206054688 614.797851562 c 1
 185.500976562 645.040039062 139.026367188 668.75 100 668.75 c 0
 60.9912109375 668.75 13.4375 644.999023438 -10 613.75 c 0
 -14.0849609375 608.302734375 -12.947265625 600.334960938 -7.5 596.25 c 0
EndSplineSet
EndChar

StartChar: C15198
Encoding: 9 20543 9
Width: 425
Flags: HW
LayerCount: 2
Fore
SplineSet
-12.5 800 m 0
 -12.5 793.19140625 -6.80859375 787.5 0 787.5 c 0
 387.5 787.5 l 1
 387.5 400 l 0
 387.5 393.19140625 393.19140625 387.5 400 387.5 c 0
 406.80859375 387.5 412.5 393.19140625 412.5 400 c 0
 412.5 800 l 0
 412.5 805.365234375 407.56640625 812.5 400 812.5 c 0
 0 812.5 l 0
 -6.80859375 812.5 -12.5 806.80859375 -12.5 800 c 0
412.5 400 m 0
 412.5 406.80859375 406.80859375 412.5 400 412.5 c 0
 12.5 412.5 l 1
 12.5 800 l 0
 12.5 806.80859375 6.80859375 812.5 0 812.5 c 0
 -6.80859375 812.5 -12.5 806.80859375 -12.5 800 c 0
 -12.5 400 l 0
 -12.5 394.634765625 -7.56640625 387.5 0 387.5 c 0
 400 387.5 l 0
 406.80859375 387.5 412.5 393.19140625 412.5 400 c 0
408.838867188 808.838867188 m 0
 404.024414062 813.653320312 395.975585938 813.653320312 391.161132812 808.838867188 c 0
 200 617.677734375 l 1
 8.8388671875 808.838867188 l 0
 4.0244140625 813.653320312 -4.0244140625 813.653320312 -8.8388671875 808.838867188 c 0
 -13.6533203125 804.024414062 -13.6533203125 795.975585938 -8.8388671875 791.161132812 c 0
 191.161132812 591.161132812 l 0
 194.955078125 587.3671875 203.48828125 585.810546875 208.838867188 591.161132812 c 0
 408.838867188 791.161132812 l 0
 413.653320312 795.975585938 413.653320312 804.024414062 408.838867188 808.838867188 c 0
EndSplineSet
EndChar

StartChar: C16452
Encoding: 10 20674 10
Width: 425
Flags: HW
LayerCount: 2
Fore
SplineSet
300 812.5 m 0
 293.19140625 812.5 287.5 806.80859375 287.5 800 c 0
 287.5 600 l 0
 287.5 593.19140625 293.19140625 587.5 300 587.5 c 0
 306.80859375 587.5 312.5 593.19140625 312.5 600 c 0
 312.5 800 l 0
 312.5 806.80859375 306.80859375 812.5 300 812.5 c 0
187.5 700 m 0
 187.5 693.19140625 193.19140625 687.5 200 687.5 c 0
 400 687.5 l 0
 406.80859375 687.5 412.5 693.19140625 412.5 700 c 0
 412.5 706.80859375 406.80859375 712.5 400 712.5 c 0
 200 712.5 l 0
 193.19140625 712.5 187.5 706.80859375 187.5 700 c 0
116.161132812 516.161132812 m 0
 120.975585938 511.346679688 129.024414062 511.346679688 133.838867188 516.161132812 c 0
 233.838867188 616.161132812 l 0
 238.653320312 620.975585938 238.653320312 629.024414062 233.838867188 633.838867188 c 0
 229.024414062 638.653320312 220.975585938 638.653320312 216.161132812 633.838867188 c 0
 116.161132812 533.838867188 l 0
 111.346679688 529.024414062 111.346679688 520.975585938 116.161132812 516.161132812 c 0
-8.8388671875 391.161132812 m 0
 -4.0244140625 386.346679688 4.0244140625 386.346679688 8.8388671875 391.161132812 c 0
 208.838867188 591.161132812 l 0
 213.653320312 595.975585938 213.653320312 604.024414062 208.838867188 608.838867188 c 0
 204.024414062 613.653320312 195.975585938 613.653320312 191.161132812 608.838867188 c 0
 -8.8388671875 408.838867188 l 0
 -13.6533203125 404.024414062 -13.6533203125 395.975585938 -8.8388671875 391.161132812 c 0
187.5 700 m 0
 187.5 637.895507812 237.895507812 587.5 300 587.5 c 0
 362.104492188 587.5 412.5 637.895507812 412.5 700 c 0
 412.5 762.104492188 362.104492188 812.5 300 812.5 c 0
 237.895507812 812.5 187.5 762.104492188 187.5 700 c 0
212.5 700 m 0
 212.5 748.295898438 251.705078125 787.5 300 787.5 c 0
 348.295898438 787.5 387.5 748.294921875 387.5 700 c 0
 387.5 651.704101562 348.294921875 612.5 300 612.5 c 0
 251.704101562 612.5 212.5 651.705078125 212.5 700 c 0
EndSplineSet
EndChar

StartChar: C17233
Encoding: 11 20731 11
Width: 425
Flags: HW
LayerCount: 2
Fore
SplineSet
116.161132812 516.161132812 m 0
 120.975585938 511.346679688 129.024414062 511.346679688 133.838867188 516.161132812 c 0
 233.838867188 616.161132812 l 0
 238.653320312 620.975585938 238.653320312 629.024414062 233.838867188 633.838867188 c 0
 229.024414062 638.653320312 220.975585938 638.653320312 216.161132812 633.838867188 c 0
 116.161132812 533.838867188 l 0
 111.346679688 529.024414062 111.346679688 520.975585938 116.161132812 516.161132812 c 0
-8.8388671875 391.161132812 m 0
 -4.0244140625 386.346679688 4.0244140625 386.346679688 8.8388671875 391.161132812 c 0
 208.838867188 591.161132812 l 0
 213.653320312 595.975585938 213.653320312 604.024414062 208.838867188 608.838867188 c 0
 204.024414062 613.653320312 195.975585938 613.653320312 191.161132812 608.838867188 c 0
 -8.8388671875 408.838867188 l 0
 -13.6533203125 404.024414062 -13.6533203125 395.975585938 -8.8388671875 391.161132812 c 0
187.5 700 m 0
 187.5 637.895507812 237.895507812 587.5 300 587.5 c 0
 362.104492188 587.5 412.5 637.895507812 412.5 700 c 0
 412.5 762.104492188 362.104492188 812.5 300 812.5 c 0
 237.895507812 812.5 187.5 762.104492188 187.5 700 c 0
212.5 700 m 0
 212.5 748.295898438 251.705078125 787.5 300 787.5 c 0
 348.295898438 787.5 387.5 748.294921875 387.5 700 c 0
 387.5 651.704101562 348.294921875 612.5 300 612.5 c 0
 251.704101562 612.5 212.5 651.705078125 212.5 700 c 0
EndSplineSet
EndChar

StartChar: C17504
Encoding: 12 20758 12
Width: 775
Flags: HW
LayerCount: 2
Fore
SplineSet
-12.5 600 m 0
 -12.5 593.19140625 -6.80859375 587.5 0 587.5 c 0
 400 587.5 l 0
 406.80859375 587.5 412.5 593.19140625 412.5 600 c 0
 412.5 606.80859375 406.80859375 612.5 400 612.5 c 0
 0 612.5 l 0
 -6.80859375 612.5 -12.5 606.80859375 -12.5 600 c 0
337.5 600 m 0
 337.5 593.19140625 343.19140625 587.5 350 587.5 c 0
 750 587.5 l 0
 756.80859375 587.5 762.5 593.19140625 762.5 600 c 0
 762.5 606.80859375 756.80859375 612.5 750 612.5 c 0
 350 612.5 l 0
 343.19140625 612.5 337.5 606.80859375 337.5 600 c 0
591.161132812 641.161132812 m 0
 595.975585938 636.346679688 604.024414062 636.346679688 608.838867188 641.161132812 c 0
 708.838867188 741.161132812 l 0
 713.653320312 745.975585938 713.653320312 754.024414062 708.838867188 758.838867188 c 0
 704.024414062 763.653320312 695.975585938 763.653320312 691.161132812 758.838867188 c 0
 591.161132812 658.838867188 l 0
 586.346679688 654.024414062 586.346679688 645.975585938 591.161132812 641.161132812 c 0
-8.8388671875 591.161132812 m 0
 -4.0244140625 586.346679688 4.0244140625 586.346679688 8.8388671875 591.161132812 c 0
 408.838867188 991.161132812 l 0
 413.653320312 995.975585938 413.653320312 1004.02441406 408.838867188 1008.83886719 c 0
 404.024414062 1013.65332031 395.975585938 1013.65332031 391.161132812 1008.83886719 c 0
 -8.8388671875 608.838867188 l 0
 -13.6533203125 604.024414062 -13.6533203125 595.975585938 -8.8388671875 591.161132812 c 0
641.161132812 708.838867188 m 0
 636.346679688 704.024414062 636.346679688 695.975585938 641.161132812 691.161132812 c 0
 741.161132812 591.161132812 l 0
 745.975585938 586.346679688 754.024414062 586.346679688 758.838867188 591.161132812 c 0
 763.653320312 595.975585938 763.653320312 604.024414062 758.838867188 608.838867188 c 0
 658.838867188 708.838867188 l 0
 654.024414062 713.653320312 645.975585938 713.653320312 641.161132812 708.838867188 c 0
137.5 700 m 0
 137.5 637.895507812 187.895507812 587.5 250 587.5 c 0
 312.104492188 587.5 362.5 637.895507812 362.5 700 c 0
 362.5 762.104492188 312.104492188 812.5 250 812.5 c 0
 187.895507812 812.5 137.5 762.104492188 137.5 700 c 0
162.5 700 m 0
 162.5 748.295898438 201.705078125 787.5 250 787.5 c 0
 298.295898438 787.5 337.5 748.294921875 337.5 700 c 0
 337.5 651.704101562 298.294921875 612.5 250 612.5 c 0
 201.704101562 612.5 162.5 651.705078125 162.5 700 c 0
178.661132812 628.661132812 m 0
 183.475585938 623.846679688 191.524414062 623.846679688 196.338867188 628.661132812 c 0
 321.338867188 753.661132812 l 0
 326.153320312 758.475585938 326.153320312 766.524414062 321.338867188 771.338867188 c 0
 316.524414062 776.153320312 308.475585938 776.153320312 303.661132812 771.338867188 c 0
 178.661132812 646.338867188 l 0
 173.846679688 641.524414062 173.846679688 633.475585938 178.661132812 628.661132812 c 0
178.661132812 771.338867188 m 0
 173.846679688 766.524414062 173.846679688 758.475585938 178.661132812 753.661132812 c 0
 303.661132812 628.661132812 l 0
 308.475585938 623.846679688 316.524414062 623.846679688 321.338867188 628.661132812 c 0
 326.153320312 633.475585938 326.153320312 641.524414062 321.338867188 646.338867188 c 0
 196.338867188 771.338867188 l 0
 191.524414062 776.153320312 183.475585938 776.153320312 178.661132812 771.338867188 c 0
137.5 500 m 0
 137.5 437.895507812 187.895507812 387.5 250 387.5 c 0
 312.104492188 387.5 362.5 437.895507812 362.5 500 c 0
 362.5 562.104492188 312.104492188 612.5 250 612.5 c 0
 187.895507812 612.5 137.5 562.104492188 137.5 500 c 0
162.5 500 m 0
 162.5 548.295898438 201.705078125 587.5 250 587.5 c 0
 298.295898438 587.5 337.5 548.294921875 337.5 500 c 0
 337.5 451.704101562 298.294921875 412.5 250 412.5 c 0
 201.704101562 412.5 162.5 451.705078125 162.5 500 c 0
178.661132812 428.661132812 m 0
 183.475585938 423.846679688 191.524414062 423.846679688 196.338867188 428.661132812 c 0
 321.338867188 553.661132812 l 0
 326.153320312 558.475585938 326.153320312 566.524414062 321.338867188 571.338867188 c 0
 316.524414062 576.153320312 308.475585938 576.153320312 303.661132812 571.338867188 c 0
 178.661132812 446.338867188 l 0
 173.846679688 441.524414062 173.846679688 433.475585938 178.661132812 428.661132812 c 0
178.661132812 571.338867188 m 0
 173.846679688 566.524414062 173.846679688 558.475585938 178.661132812 553.661132812 c 0
 303.661132812 428.661132812 l 0
 308.475585938 423.846679688 316.524414062 423.846679688 321.338867188 428.661132812 c 0
 326.153320312 433.475585938 326.153320312 441.524414062 321.338867188 446.338867188 c 0
 196.338867188 571.338867188 l 0
 191.524414062 576.153320312 183.475585938 576.153320312 178.661132812 571.338867188 c 0
337.5 500 m 0
 337.5 437.895507812 387.895507812 387.5 450 387.5 c 0
 512.104492188 387.5 562.5 437.895507812 562.5 500 c 0
 562.5 562.104492188 512.104492188 612.5 450 612.5 c 0
 387.895507812 612.5 337.5 562.104492188 337.5 500 c 0
362.5 500 m 0
 362.5 548.295898438 401.705078125 587.5 450 587.5 c 0
 498.295898438 587.5 537.5 548.294921875 537.5 500 c 0
 537.5 451.704101562 498.294921875 412.5 450 412.5 c 0
 401.704101562 412.5 362.5 451.705078125 362.5 500 c 0
378.661132812 428.661132812 m 0
 383.475585938 423.846679688 391.524414062 423.846679688 396.338867188 428.661132812 c 0
 521.338867188 553.661132812 l 0
 526.153320312 558.475585938 526.153320312 566.524414062 521.338867188 571.338867188 c 0
 516.524414062 576.153320312 508.475585938 576.153320312 503.661132812 571.338867188 c 0
 378.661132812 446.338867188 l 0
 373.846679688 441.524414062 373.846679688 433.475585938 378.661132812 428.661132812 c 0
378.661132812 571.338867188 m 0
 373.846679688 566.524414062 373.846679688 558.475585938 378.661132812 553.661132812 c 0
 503.661132812 428.661132812 l 0
 508.475585938 423.846679688 516.524414062 423.846679688 521.338867188 428.661132812 c 0
 526.153320312 433.475585938 526.153320312 441.524414062 521.338867188 446.338867188 c 0
 396.338867188 571.338867188 l 0
 391.524414062 576.153320312 383.475585938 576.153320312 378.661132812 571.338867188 c 0
537.5 500 m 0
 537.5 437.895507812 587.895507812 387.5 650 387.5 c 0
 712.104492188 387.5 762.5 437.895507812 762.5 500 c 0
 762.5 562.104492188 712.104492188 612.5 650 612.5 c 0
 587.895507812 612.5 537.5 562.104492188 537.5 500 c 0
562.5 500 m 0
 562.5 548.295898438 601.705078125 587.5 650 587.5 c 0
 698.295898438 587.5 737.5 548.294921875 737.5 500 c 0
 737.5 451.704101562 698.294921875 412.5 650 412.5 c 0
 601.704101562 412.5 562.5 451.705078125 562.5 500 c 0
578.661132812 428.661132812 m 0
 583.475585938 423.846679688 591.524414062 423.846679688 596.338867188 428.661132812 c 0
 721.338867188 553.661132812 l 0
 726.153320312 558.475585938 726.153320312 566.524414062 721.338867188 571.338867188 c 0
 716.524414062 576.153320312 708.475585938 576.153320312 703.661132812 571.338867188 c 0
 578.661132812 446.338867188 l 0
 573.846679688 441.524414062 573.846679688 433.475585938 578.661132812 428.661132812 c 0
578.661132812 571.338867188 m 0
 573.846679688 566.524414062 573.846679688 558.475585938 578.661132812 553.661132812 c 0
 703.661132812 428.661132812 l 0
 708.475585938 423.846679688 716.524414062 423.846679688 721.338867188 428.661132812 c 0
 726.153320312 433.475585938 726.153320312 441.524414062 721.338867188 446.338867188 c 0
 596.338867188 571.338867188 l 0
 591.524414062 576.153320312 583.475585938 576.153320312 578.661132812 571.338867188 c 0
EndSplineSet
EndChar

StartChar: C17765
Encoding: 13 20780 13
Width: 625
Flags: HW
LayerCount: 2
Fore
SplineSet
387.5 600 m 0
 387.5 593.19140625 393.19140625 587.5 400 587.5 c 0
 600 587.5 l 0
 606.80859375 587.5 612.5 593.19140625 612.5 600 c 0
 612.5 606.80859375 606.80859375 612.5 600 612.5 c 0
 400 612.5 l 0
 393.19140625 612.5 387.5 606.80859375 387.5 600 c 0
59.9111328125 459.911132812 m 0
 64.7255859375 455.096679688 72.7744140625 455.096679688 77.5888671875 459.911132812 c 0
 177.588867188 559.911132812 l 0
 182.403320312 564.725585938 182.403320312 572.774414062 177.588867188 577.588867188 c 0
 172.774414062 582.403320312 164.725585938 582.403320312 159.911132812 577.588867188 c 0
 59.9111328125 477.588867188 l 0
 55.0966796875 472.774414062 55.0966796875 464.725585938 59.9111328125 459.911132812 c 0
441.161132812 641.161132812 m 0
 445.975585938 636.346679688 454.024414062 636.346679688 458.838867188 641.161132812 c 0
 558.838867188 741.161132812 l 0
 563.653320312 745.975585938 563.653320312 754.024414062 558.838867188 758.838867188 c 0
 554.024414062 763.653320312 545.975585938 763.653320312 541.161132812 758.838867188 c 0
 441.161132812 658.838867188 l 0
 436.346679688 654.024414062 436.346679688 645.975585938 441.161132812 641.161132812 c 0
122.411132812 522.411132812 m 0
 127.225585938 517.596679688 135.274414062 517.596679688 140.088867188 522.411132812 c 0
 340.088867188 722.411132812 l 0
 344.903320312 727.225585938 344.903320312 735.274414062 340.088867188 740.088867188 c 0
 335.274414062 744.903320312 327.225585938 744.903320312 322.411132812 740.088867188 c 0
 122.411132812 540.088867188 l 0
 117.596679688 535.274414062 117.596679688 527.225585938 122.411132812 522.411132812 c 0
222.411132812 577.588867188 m 0
 217.596679688 572.774414062 217.596679688 564.725585938 222.411132812 559.911132812 c 0
 322.411132812 459.911132812 l 0
 327.225585938 455.096679688 335.274414062 455.096679688 340.088867188 459.911132812 c 0
 344.903320312 464.725585938 344.903320312 472.774414062 340.088867188 477.588867188 c 0
 240.088867188 577.588867188 l 0
 235.274414062 582.403320312 227.225585938 582.403320312 222.411132812 577.588867188 c 0
491.161132812 708.838867188 m 0
 486.346679688 704.024414062 486.346679688 695.975585938 491.161132812 691.161132812 c 0
 591.161132812 591.161132812 l 0
 595.975585938 586.346679688 604.024414062 586.346679688 608.838867188 591.161132812 c 0
 613.653320312 595.975585938 613.653320312 604.024414062 608.838867188 608.838867188 c 0
 508.838867188 708.838867188 l 0
 504.024414062 713.653320312 495.975585938 713.653320312 491.161132812 708.838867188 c 0
59.9111328125 740.088867188 m 0
 55.0966796875 735.274414062 55.0966796875 727.225585938 59.9111328125 722.411132812 c 0
 259.911132812 522.411132812 l 0
 264.725585938 517.596679688 272.774414062 517.596679688 277.588867188 522.411132812 c 0
 282.403320312 527.225585938 282.403320312 535.274414062 277.588867188 540.088867188 c 0
 77.5888671875 740.088867188 l 0
 72.7744140625 744.903320312 64.7255859375 744.903320312 59.9111328125 740.088867188 c 0
-12.5 600 m 0
 -12.5 482.6953125 82.6953125 387.5 200 387.5 c 0
 317.3046875 387.5 412.5 482.6953125 412.5 600 c 0
 412.5 717.3046875 317.3046875 812.5 200 812.5 c 0
 82.6953125 812.5 -12.5 717.3046875 -12.5 600 c 0
12.5 600 m 0
 12.5 703.49609375 96.50390625 787.5 200 787.5 c 0
 303.49609375 787.5 387.5 703.49609375 387.5 600 c 0
 387.5 496.50390625 303.49609375 412.5 200 412.5 c 0
 96.50390625 412.5 12.5 496.50390625 12.5 600 c 0
387.5 500 m 0
 387.5 437.895507812 437.895507812 387.5 500 387.5 c 0
 562.104492188 387.5 612.5 437.895507812 612.5 500 c 0
 612.5 562.104492188 562.104492188 612.5 500 612.5 c 0
 437.895507812 612.5 387.5 562.104492188 387.5 500 c 0
412.5 500 m 0
 412.5 548.295898438 451.705078125 587.5 500 587.5 c 0
 548.295898438 587.5 587.5 548.294921875 587.5 500 c 0
 587.5 451.704101562 548.294921875 412.5 500 412.5 c 0
 451.704101562 412.5 412.5 451.705078125 412.5 500 c 0
428.661132812 428.661132812 m 0
 433.475585938 423.846679688 441.524414062 423.846679688 446.338867188 428.661132812 c 0
 571.338867188 553.661132812 l 0
 576.153320312 558.475585938 576.153320312 566.524414062 571.338867188 571.338867188 c 0
 566.524414062 576.153320312 558.475585938 576.153320312 553.661132812 571.338867188 c 0
 428.661132812 446.338867188 l 0
 423.846679688 441.524414062 423.846679688 433.475585938 428.661132812 428.661132812 c 0
428.661132812 571.338867188 m 0
 423.846679688 566.524414062 423.846679688 558.475585938 428.661132812 553.661132812 c 0
 553.661132812 428.661132812 l 0
 558.475585938 423.846679688 566.524414062 423.846679688 571.338867188 428.661132812 c 0
 576.153320312 433.475585938 576.153320312 441.524414062 571.338867188 446.338867188 c 0
 446.338867188 571.338867188 l 0
 441.524414062 576.153320312 433.475585938 576.153320312 428.661132812 571.338867188 c 0
EndSplineSet
EndChar

StartChar: C22067
Encoding: 14 20885 14
Width: 575
Flags: HW
LayerCount: 2
Fore
SplineSet
441.161132812 691.161132812 m 0
 445.975585938 686.346679688 454.024414062 686.346679688 458.838867188 691.161132812 c 0
 558.838867188 791.161132812 l 0
 563.653320312 795.975585938 563.653320312 804.024414062 558.838867188 808.838867188 c 0
 554.024414062 813.653320312 545.975585938 813.653320312 541.161132812 808.838867188 c 0
 441.161132812 708.838867188 l 0
 436.346679688 704.024414062 436.346679688 695.975585938 441.161132812 691.161132812 c 0
41.1611328125 391.161132812 m 0
 45.9755859375 386.346679688 54.0244140625 386.346679688 58.8388671875 391.161132812 c 0
 258.838867188 591.161132812 l 0
 263.653320312 595.975585938 263.653320312 604.024414062 258.838867188 608.838867188 c 0
 254.024414062 613.653320312 245.975585938 613.653320312 241.161132812 608.838867188 c 0
 41.1611328125 408.838867188 l 0
 36.3466796875 404.024414062 36.3466796875 395.975585938 41.1611328125 391.161132812 c 0
141.161132812 291.161132812 m 0
 145.975585938 286.346679688 154.024414062 286.346679688 158.838867188 291.161132812 c 0
 358.838867188 491.161132812 l 0
 363.653320312 495.975585938 363.653320312 504.024414062 358.838867188 508.838867188 c 0
 354.024414062 513.653320312 345.975585938 513.653320312 341.161132812 508.838867188 c 0
 141.161132812 308.838867188 l 0
 136.346679688 304.024414062 136.346679688 295.975585938 141.161132812 291.161132812 c 0
291.161132812 541.161132812 m 0
 295.975585938 536.346679688 304.024414062 536.346679688 308.838867188 541.161132812 c 0
 508.838867188 741.161132812 l 0
 513.653320312 745.975585938 513.653320312 754.024414062 508.838867188 758.838867188 c 0
 504.024414062 763.653320312 495.975585938 763.653320312 491.161132812 758.838867188 c 0
 291.161132812 558.838867188 l 0
 286.346679688 554.024414062 286.346679688 545.975585938 291.161132812 541.161132812 c 0
41.1611328125 408.838867188 m 0
 36.3466796875 404.024414062 36.3466796875 395.975585938 41.1611328125 391.161132812 c 0
 141.161132812 291.161132812 l 0
 145.975585938 286.346679688 154.024414062 286.346679688 158.838867188 291.161132812 c 0
 163.653320312 295.975585938 163.653320312 304.024414062 158.838867188 308.838867188 c 0
 58.8388671875 408.838867188 l 0
 54.0244140625 413.653320312 45.9755859375 413.653320312 41.1611328125 408.838867188 c 0
241.161132812 608.838867188 m 0
 236.346679688 604.024414062 236.346679688 595.975585938 241.161132812 591.161132812 c 0
 341.161132812 491.161132812 l 0
 345.975585938 486.346679688 354.024414062 486.346679688 358.838867188 491.161132812 c 0
 363.653320312 495.975585938 363.653320312 504.024414062 358.838867188 508.838867188 c 0
 258.838867188 608.838867188 l 0
 254.024414062 613.653320312 245.975585938 613.653320312 241.161132812 608.838867188 c 0
-7.5 396.25 m 0
 -2.052734375 392.165039062 5.9150390625 393.302734375 10 398.75 c 0
 27.962890625 422.700195312 70.0087890625 443.75 100 443.75 c 0
 129.938476562 443.75 172.004882812 422.743164062 190 398.75 c 0
 190.477539062 398.11328125 191.206054688 397.344726562 191.666992188 396.932617188 c 0
 218.078125 373.309570312 264.576171875 355.553710938 300 355.553710938 c 0
 335.435546875 355.553710938 381.9296875 373.31640625 408.333007812 396.932617188 c 0
 413.408203125 401.471679688 413.856445312 409.508789062 409.317382812 414.583007812 c 0
 404.778320312 419.658203125 396.741210938 420.106445312 391.666992188 415.567382812 c 0
 370.923828125 397.013671875 327.818359375 380.553710938 300 380.553710938 c 0
 272.607421875 380.553710938 230.841796875 396.17578125 209.206054688 414.797851562 c 1
 185.500976562 445.040039062 139.026367188 468.75 100 468.75 c 0
 60.9912109375 468.75 13.4375 444.999023438 -10 413.75 c 0
 -14.0849609375 408.302734375 -12.947265625 400.334960938 -7.5 396.25 c 0
EndSplineSet
EndChar

StartChar: C90023
Encoding: 15 21101 15
Width: 625
Flags: HW
LayerCount: 2
Fore
SplineSet
100 812.5 m 0
 93.19140625 812.5 87.5 806.80859375 87.5 800 c 0
 87.5 600 l 0
 87.5 593.19140625 93.19140625 587.5 100 587.5 c 0
 106.80859375 587.5 112.5 593.19140625 112.5 600 c 0
 112.5 800 l 0
 112.5 806.80859375 106.80859375 812.5 100 812.5 c 0
500 812.5 m 0
 493.19140625 812.5 487.5 806.80859375 487.5 800 c 0
 487.5 600 l 0
 487.5 593.19140625 493.19140625 587.5 500 587.5 c 0
 506.80859375 587.5 512.5 593.19140625 512.5 600 c 0
 512.5 800 l 0
 512.5 806.80859375 506.80859375 812.5 500 812.5 c 0
-12.5 700 m 0
 -12.5 693.19140625 -6.80859375 687.5 0 687.5 c 0
 200 687.5 l 0
 206.80859375 687.5 212.5 693.19140625 212.5 700 c 0
 212.5 706.80859375 206.80859375 712.5 200 712.5 c 0
 0 712.5 l 0
 -6.80859375 712.5 -12.5 706.80859375 -12.5 700 c 0
387.5 700 m 0
 387.5 693.19140625 393.19140625 687.5 400 687.5 c 0
 600 687.5 l 0
 606.80859375 687.5 612.5 693.19140625 612.5 700 c 0
 612.5 706.80859375 606.80859375 712.5 600 712.5 c 0
 400 712.5 l 0
 393.19140625 712.5 387.5 706.80859375 387.5 700 c 0
316.161132812 516.161132812 m 0
 320.975585938 511.346679688 329.024414062 511.346679688 333.838867188 516.161132812 c 0
 433.838867188 616.161132812 l 0
 438.653320312 620.975585938 438.653320312 629.024414062 433.838867188 633.838867188 c 0
 429.024414062 638.653320312 420.975585938 638.653320312 416.161132812 633.838867188 c 0
 316.161132812 533.838867188 l 0
 311.346679688 529.024414062 311.346679688 520.975585938 316.161132812 516.161132812 c 0
191.161132812 391.161132812 m 0
 195.975585938 386.346679688 204.024414062 386.346679688 208.838867188 391.161132812 c 0
 408.838867188 591.161132812 l 0
 413.653320312 595.975585938 413.653320312 604.024414062 408.838867188 608.838867188 c 0
 404.024414062 613.653320312 395.975585938 613.653320312 391.161132812 608.838867188 c 0
 191.161132812 408.838867188 l 0
 186.346679688 404.024414062 186.346679688 395.975585938 191.161132812 391.161132812 c 0
166.161132812 633.838867188 m 0
 161.346679688 629.024414062 161.346679688 620.975585938 166.161132812 616.161132812 c 0
 266.161132812 516.161132812 l 0
 270.975585938 511.346679688 279.024414062 511.346679688 283.838867188 516.161132812 c 0
 288.653320312 520.975585938 288.653320312 529.024414062 283.838867188 533.838867188 c 0
 183.838867188 633.838867188 l 0
 179.024414062 638.653320312 170.975585938 638.653320312 166.161132812 633.838867188 c 0
191.161132812 608.838867188 m 0
 186.346679688 604.024414062 186.346679688 595.975585938 191.161132812 591.161132812 c 0
 391.161132812 391.161132812 l 0
 395.975585938 386.346679688 404.024414062 386.346679688 408.838867188 391.161132812 c 0
 413.653320312 395.975585938 413.653320312 404.024414062 408.838867188 408.838867188 c 0
 208.838867188 608.838867188 l 0
 204.024414062 613.653320312 195.975585938 613.653320312 191.161132812 608.838867188 c 0
-12.5 700 m 0
 -12.5 637.895507812 37.8955078125 587.5 100 587.5 c 0
 162.104492188 587.5 212.5 637.895507812 212.5 700 c 0
 212.5 762.104492188 162.104492188 812.5 100 812.5 c 0
 37.8955078125 812.5 -12.5 762.104492188 -12.5 700 c 0
12.5 700 m 0
 12.5 748.295898438 51.705078125 787.5 100 787.5 c 0
 148.295898438 787.5 187.5 748.294921875 187.5 700 c 0
 187.5 651.704101562 148.294921875 612.5 100 612.5 c 0
 51.7041015625 612.5 12.5 651.705078125 12.5 700 c 0
387.5 700 m 0
 387.5 637.895507812 437.895507812 587.5 500 587.5 c 0
 562.104492188 587.5 612.5 637.895507812 612.5 700 c 0
 612.5 762.104492188 562.104492188 812.5 500 812.5 c 0
 437.895507812 812.5 387.5 762.104492188 387.5 700 c 0
412.5 700 m 0
 412.5 748.295898438 451.705078125 787.5 500 787.5 c 0
 548.295898438 787.5 587.5 748.294921875 587.5 700 c 0
 587.5 651.704101562 548.294921875 612.5 500 612.5 c 0
 451.704101562 612.5 412.5 651.705078125 412.5 700 c 0
EndSplineSet
EndChar

StartChar: C90043
Encoding: 16 21114 16
Width: 425
Flags: HW
LayerCount: 2
Fore
SplineSet
200 812.5 m 0
 193.19140625 812.5 187.5 806.80859375 187.5 800 c 0
 187.5 400 l 0
 187.5 393.19140625 193.19140625 387.5 200 387.5 c 0
 206.80859375 387.5 212.5 393.19140625 212.5 400 c 0
 212.5 800 l 0
 212.5 806.80859375 206.80859375 812.5 200 812.5 c 0
87.5 400 m 0
 87.5 393.19140625 93.19140625 387.5 100 387.5 c 0
 300 387.5 l 0
 306.80859375 387.5 312.5 393.19140625 312.5 400 c 0
 312.5 406.80859375 306.80859375 412.5 300 412.5 c 0
 100 412.5 l 0
 93.19140625 412.5 87.5 406.80859375 87.5 400 c 0
87.5 900 m 0
 87.5 837.895507812 137.895507812 787.5 200 787.5 c 0
 262.104492188 787.5 312.5 837.895507812 312.5 900 c 0
 312.5 962.104492188 262.104492188 1012.5 200 1012.5 c 0
 137.895507812 1012.5 87.5 962.104492188 87.5 900 c 0
112.5 900 m 0
 112.5 948.295898438 151.705078125 987.5 200 987.5 c 0
 248.295898438 987.5 287.5 948.294921875 287.5 900 c 0
 287.5 851.704101562 248.294921875 812.5 200 812.5 c 0
 151.704101562 812.5 112.5 851.705078125 112.5 900 c 0
-12.5 800 m 0
 -12.5 793.19140625 -6.80859375 787.5 0 787.5 c 0
 103.49609375 787.5 187.5 703.49609375 187.5 600 c 0
 187.5 593.19140625 193.19140625 587.5 200 587.5 c 0
 206.80859375 587.5 212.5 593.19140625 212.5 600 c 0
 212.5 717.3046875 117.3046875 812.5 0 812.5 c 0
 -6.80859375 812.5 -12.5 806.80859375 -12.5 800 c 0
200 587.5 m 0
 206.80859375 587.5 212.5 593.19140625 212.5 600 c 0
 212.5 703.49609375 296.50390625 787.5 400 787.5 c 0
 406.80859375 787.5 412.5 793.19140625 412.5 800 c 0
 412.5 806.80859375 406.80859375 812.5 400 812.5 c 0
 282.6953125 812.5 187.5 717.3046875 187.5 600 c 0
 187.5 593.19140625 193.19140625 587.5 200 587.5 c 0
EndSplineSet
EndChar

StartChar: C90084
Encoding: 17 21145 17
Width: 425
Flags: HW
LayerCount: 2
Fore
SplineSet
200 812.5 m 0
 193.19140625 812.5 187.5 806.80859375 187.5 800 c 0
 187.5 400 l 0
 187.5 393.19140625 193.19140625 387.5 200 387.5 c 0
 206.80859375 387.5 212.5 393.19140625 212.5 400 c 0
 212.5 800 l 0
 212.5 806.80859375 206.80859375 812.5 200 812.5 c 0
228.661132812 628.661132812 m 0
 233.475585938 623.846679688 241.524414062 623.846679688 246.338867188 628.661132812 c 0
 346.338867188 728.661132812 l 0
 351.153320312 733.475585938 351.153320312 741.524414062 346.338867188 746.338867188 c 0
 341.524414062 751.153320312 333.475585938 751.153320312 328.661132812 746.338867188 c 0
 228.661132812 646.338867188 l 0
 223.846679688 641.524414062 223.846679688 633.475585938 228.661132812 628.661132812 c 0
53.6611328125 453.661132812 m 0
 58.4755859375 448.846679688 66.5244140625 448.846679688 71.3388671875 453.661132812 c 0
 271.338867188 653.661132812 l 0
 276.153320312 658.475585938 276.153320312 666.524414062 271.338867188 671.338867188 c 0
 266.524414062 676.153320312 258.475585938 676.153320312 253.661132812 671.338867188 c 0
 53.6611328125 471.338867188 l 0
 48.8466796875 466.524414062 48.8466796875 458.475585938 53.6611328125 453.661132812 c 0
53.6611328125 746.338867188 m 0
 48.8466796875 741.524414062 48.8466796875 733.475585938 53.6611328125 728.661132812 c 0
 153.661132812 628.661132812 l 0
 158.475585938 623.846679688 166.524414062 623.846679688 171.338867188 628.661132812 c 0
 176.153320312 633.475585938 176.153320312 641.524414062 171.338867188 646.338867188 c 0
 71.3388671875 746.338867188 l 0
 66.5244140625 751.153320312 58.4755859375 751.153320312 53.6611328125 746.338867188 c 0
128.661132812 671.338867188 m 0
 123.846679688 666.524414062 123.846679688 658.475585938 128.661132812 653.661132812 c 0
 328.661132812 453.661132812 l 0
 333.475585938 448.846679688 341.524414062 448.846679688 346.338867188 453.661132812 c 0
 351.153320312 458.475585938 351.153320312 466.524414062 346.338867188 471.338867188 c 0
 146.338867188 671.338867188 l 0
 141.524414062 676.153320312 133.475585938 676.153320312 128.661132812 671.338867188 c 0
-12.5 600 m 0
 -12.5 482.6953125 82.6953125 387.5 200 387.5 c 0
 317.3046875 387.5 412.5 482.6953125 412.5 600 c 0
 412.5 717.3046875 317.3046875 812.5 200 812.5 c 0
 82.6953125 812.5 -12.5 717.3046875 -12.5 600 c 0
12.5 600 m 0
 12.5 703.49609375 96.50390625 787.5 200 787.5 c 0
 303.49609375 787.5 387.5 703.49609375 387.5 600 c 0
 387.5 496.50390625 303.49609375 412.5 200 412.5 c 0
 96.50390625 412.5 12.5 496.50390625 12.5 600 c 0
EndSplineSet
EndChar

StartChar: C90160
Encoding: 18 21205 18
Width: 425
Flags: HW
LayerCount: 2
Fore
SplineSet
200 812.5 m 0
 193.19140625 812.5 187.5 806.80859375 187.5 800 c 0
 187.5 400 l 0
 187.5 393.19140625 193.19140625 387.5 200 387.5 c 0
 206.80859375 387.5 212.5 393.19140625 212.5 400 c 0
 212.5 800 l 0
 212.5 806.80859375 206.80859375 812.5 200 812.5 c 0
-12.5 600 m 0
 -12.5 593.19140625 -6.80859375 587.5 0 587.5 c 0
 400 587.5 l 0
 406.80859375 587.5 412.5 593.19140625 412.5 600 c 0
 412.5 606.80859375 406.80859375 612.5 400 612.5 c 0
 0 612.5 l 0
 -6.80859375 612.5 -12.5 606.80859375 -12.5 600 c 0
-8.8388671875 391.161132812 m 0
 -4.0244140625 386.346679688 4.0244140625 386.346679688 8.8388671875 391.161132812 c 0
 408.838867188 791.161132812 l 0
 413.653320312 795.975585938 413.653320312 804.024414062 408.838867188 808.838867188 c 0
 404.024414062 813.653320312 395.975585938 813.653320312 391.161132812 808.838867188 c 0
 -8.8388671875 408.838867188 l 0
 -13.6533203125 404.024414062 -13.6533203125 395.975585938 -8.8388671875 391.161132812 c 0
-8.8388671875 808.838867188 m 0
 -13.6533203125 804.024414062 -13.6533203125 795.975585938 -8.8388671875 791.161132812 c 0
 391.161132812 391.161132812 l 0
 395.975585938 386.346679688 404.024414062 386.346679688 408.838867188 391.161132812 c 0
 413.653320312 395.975585938 413.653320312 404.024414062 408.838867188 408.838867188 c 0
 8.8388671875 808.838867188 l 0
 4.0244140625 813.653320312 -4.0244140625 813.653320312 -8.8388671875 808.838867188 c 0
-12.5 800 m 0
 -12.5 793.19140625 -6.80859375 787.5 0 787.5 c 0
 387.5 787.5 l 1
 387.5 400 l 0
 387.5 393.19140625 393.19140625 387.5 400 387.5 c 0
 406.80859375 387.5 412.5 393.19140625 412.5 400 c 0
 412.5 800 l 0
 412.5 805.365234375 407.56640625 812.5 400 812.5 c 0
 0 812.5 l 0
 -6.80859375 812.5 -12.5 806.80859375 -12.5 800 c 0
412.5 400 m 0
 412.5 406.80859375 406.80859375 412.5 400 412.5 c 0
 12.5 412.5 l 1
 12.5 800 l 0
 12.5 806.80859375 6.80859375 812.5 0 812.5 c 0
 -6.80859375 812.5 -12.5 806.80859375 -12.5 800 c 0
 -12.5 400 l 0
 -12.5 394.634765625 -7.56640625 387.5 0 387.5 c 0
 400 387.5 l 0
 406.80859375 387.5 412.5 393.19140625 412.5 400 c 0
EndSplineSet
EndChar

StartChar: C99999
Encoding: 19 21246 19
Width: 425
Flags: HW
LayerCount: 2
Fore
SplineSet
-12.5 800 m 0
 -12.5 793.19140625 -6.80859375 787.5 0 787.5 c 0
 400 787.5 l 0
 406.80859375 787.5 412.5 793.19140625 412.5 800 c 0
 412.5 806.80859375 406.80859375 812.5 400 812.5 c 0
 0 812.5 l 0
 -6.80859375 812.5 -12.5 806.80859375 -12.5 800 c 0
-12.5 1200 m 0
 -12.5 1193.19140625 -6.80859375 1187.5 0 1187.5 c 0
 400 1187.5 l 0
 406.80859375 1187.5 412.5 1193.19140625 412.5 1200 c 0
 412.5 1206.80859375 406.80859375 1212.5 400 1212.5 c 0
 0 1212.5 l 0
 -6.80859375 1212.5 -12.5 1206.80859375 -12.5 1200 c 0
-12.5 400 m 0
 -12.5 393.19140625 -6.80859375 387.5 0 387.5 c 0
 400 387.5 l 0
 406.80859375 387.5 412.5 393.19140625 412.5 400 c 0
 412.5 406.80859375 406.80859375 412.5 400 412.5 c 0
 0 412.5 l 0
 -6.80859375 412.5 -12.5 406.80859375 -12.5 400 c 0
-12.5 0 m 0
 -12.5 -6.80859375 -6.80859375 -12.5 0 -12.5 c 0
 400 -12.5 l 0
 406.80859375 -12.5 412.5 -6.80859375 412.5 0 c 0
 412.5 6.80859375 406.80859375 12.5 400 12.5 c 0
 0 12.5 l 0
 -6.80859375 12.5 -12.5 6.80859375 -12.5 0 c 0
137.5 1000 m 0
 137.5 965.49609375 165.49609375 937.5 200 937.5 c 0
 234.50390625 937.5 262.5 965.49609375 262.5 1000 c 0
 262.5 1034.50390625 234.50390625 1062.5 200 1062.5 c 0
 165.49609375 1062.5 137.5 1034.50390625 137.5 1000 c 0
162.5 1000 m 0
 162.5 1020.6953125 179.3046875 1037.5 200 1037.5 c 0
 220.6953125 1037.5 237.5 1020.6953125 237.5 1000 c 0
 237.5 979.3046875 220.6953125 962.5 200 962.5 c 0
 179.3046875 962.5 162.5 979.3046875 162.5 1000 c 0
137.5 600 m 0
 137.5 565.49609375 165.49609375 537.5 200 537.5 c 0
 234.50390625 537.5 262.5 565.49609375 262.5 600 c 0
 262.5 634.50390625 234.50390625 662.5 200 662.5 c 0
 165.49609375 662.5 137.5 634.50390625 137.5 600 c 0
162.5 600 m 0
 162.5 620.6953125 179.3046875 637.5 200 637.5 c 0
 220.6953125 637.5 237.5 620.6953125 237.5 600 c 0
 237.5 579.3046875 220.6953125 562.5 200 562.5 c 0
 179.3046875 562.5 162.5 579.3046875 162.5 600 c 0
137.5 200 m 0
 137.5 165.49609375 165.49609375 137.5 200 137.5 c 0
 234.50390625 137.5 262.5 165.49609375 262.5 200 c 0
 262.5 234.50390625 234.50390625 262.5 200 262.5 c 0
 165.49609375 262.5 137.5 234.50390625 137.5 200 c 0
162.5 200 m 0
 162.5 220.6953125 179.3046875 237.5 200 237.5 c 0
 220.6953125 237.5 237.5 220.6953125 237.5 200 c 0
 237.5 179.3046875 220.6953125 162.5 200 162.5 c 0
 179.3046875 162.5 162.5 179.3046875 162.5 200 c 0
EndSplineSet
EndChar
